<mxfile host="Electron" agent="Mozilla/5.0 (Windows NT 10.0; Win64; x64) AppleWebKit/537.36 (KHTML, like Gecko) draw.io/28.1.2 Chrome/138.0.7204.243 Electron/37.4.0 Safari/537.36" version="28.1.2" pages="2">
  <diagram name="Carousel" id="FdMZGH_URRjinYVJTnXf">
    <mxGraphModel dx="1100" dy="806" grid="1" gridSize="10" guides="1" tooltips="1" connect="1" arrows="1" fold="1" page="1" pageScale="1" pageWidth="850" pageHeight="1100" math="0" shadow="0">
      <root>
        <mxCell id="0" />
        <mxCell id="1" parent="0" />
        <mxCell id="kMopjtABeg8flpMHGuyY-1" value="Inbound Queue" style="rounded=0;whiteSpace=wrap;html=1;fontFamily=Verdana;fontSize=14;" parent="1" vertex="1">
          <mxGeometry x="150" y="210" width="120" height="60" as="geometry" />
        </mxCell>
        <mxCell id="kMopjtABeg8flpMHGuyY-2" value="Staging Area" style="rounded=0;whiteSpace=wrap;html=1;fontFamily=Verdana;fontSize=14;" parent="1" vertex="1">
          <mxGeometry x="340" y="210" width="120" height="60" as="geometry" />
        </mxCell>
        <mxCell id="kMopjtABeg8flpMHGuyY-3" value="" style="ellipse;whiteSpace=wrap;html=1;fontFamily=Verdana;fontSize=14;" parent="1" vertex="1">
          <mxGeometry x="640" y="160" width="160" height="160" as="geometry" />
        </mxCell>
        <mxCell id="kMopjtABeg8flpMHGuyY-4" value="Outbound Queue" style="rounded=0;whiteSpace=wrap;html=1;fontFamily=Verdana;fontSize=14;" parent="1" vertex="1">
          <mxGeometry x="660" y="440" width="120" height="60" as="geometry" />
        </mxCell>
        <mxCell id="kMopjtABeg8flpMHGuyY-5" value="" style="ellipse;whiteSpace=wrap;html=1;fontFamily=Verdana;fontSize=14;" parent="1" vertex="1">
          <mxGeometry x="700" y="170" width="40" height="40" as="geometry" />
        </mxCell>
        <mxCell id="kMopjtABeg8flpMHGuyY-6" value="" style="ellipse;whiteSpace=wrap;html=1;fontFamily=Verdana;fontSize=14;" parent="1" vertex="1">
          <mxGeometry x="650" y="220" width="40" height="40" as="geometry" />
        </mxCell>
        <mxCell id="kMopjtABeg8flpMHGuyY-7" value="" style="ellipse;whiteSpace=wrap;html=1;fontFamily=Verdana;fontSize=14;" parent="1" vertex="1">
          <mxGeometry x="750" y="220" width="40" height="40" as="geometry" />
        </mxCell>
        <mxCell id="kMopjtABeg8flpMHGuyY-8" value="" style="ellipse;whiteSpace=wrap;html=1;fontFamily=Verdana;fontSize=14;" parent="1" vertex="1">
          <mxGeometry x="700" y="270" width="40" height="40" as="geometry" />
        </mxCell>
        <mxCell id="kMopjtABeg8flpMHGuyY-9" value="Load" style="rounded=0;whiteSpace=wrap;html=1;fontFamily=Verdana;fontSize=14;" parent="1" vertex="1">
          <mxGeometry x="550" y="225" width="110" height="30" as="geometry" />
        </mxCell>
        <mxCell id="kMopjtABeg8flpMHGuyY-12" value="Unload" style="rounded=0;whiteSpace=wrap;html=1;fontFamily=Verdana;fontSize=14;rotation=90;" parent="1" vertex="1">
          <mxGeometry x="680" y="330" width="80" height="30" as="geometry" />
        </mxCell>
        <mxCell id="kMopjtABeg8flpMHGuyY-21" value="Carousel" style="text;html=1;align=center;verticalAlign=middle;whiteSpace=wrap;rounded=0;" parent="1" vertex="1">
          <mxGeometry x="580" y="130" width="60" height="30" as="geometry" />
        </mxCell>
        <mxCell id="kMopjtABeg8flpMHGuyY-22" value="Pod" style="text;html=1;align=center;verticalAlign=middle;whiteSpace=wrap;rounded=0;" parent="1" vertex="1">
          <mxGeometry x="700" y="100" width="60" height="30" as="geometry" />
        </mxCell>
        <mxCell id="kMopjtABeg8flpMHGuyY-23" value="" style="endArrow=classic;html=1;rounded=0;exitX=0.5;exitY=1;exitDx=0;exitDy=0;" parent="1" source="kMopjtABeg8flpMHGuyY-22" target="kMopjtABeg8flpMHGuyY-5" edge="1">
          <mxGeometry width="50" height="50" relative="1" as="geometry">
            <mxPoint x="540" y="360" as="sourcePoint" />
            <mxPoint x="590" y="310" as="targetPoint" />
          </mxGeometry>
        </mxCell>
        <mxCell id="kMopjtABeg8flpMHGuyY-24" value="" style="endArrow=classic;html=1;rounded=0;exitX=1;exitY=1;exitDx=0;exitDy=0;entryX=0;entryY=0;entryDx=0;entryDy=0;" parent="1" source="kMopjtABeg8flpMHGuyY-21" target="kMopjtABeg8flpMHGuyY-3" edge="1">
          <mxGeometry width="50" height="50" relative="1" as="geometry">
            <mxPoint x="540" y="360" as="sourcePoint" />
            <mxPoint x="590" y="310" as="targetPoint" />
          </mxGeometry>
        </mxCell>
        <mxCell id="tEMK68GwZArFFZ3tOXDI-9" value="" style="endArrow=classic;html=1;rounded=0;exitX=1;exitY=0.5;exitDx=0;exitDy=0;" parent="1" source="kMopjtABeg8flpMHGuyY-1" target="kMopjtABeg8flpMHGuyY-2" edge="1">
          <mxGeometry relative="1" as="geometry">
            <mxPoint x="370" y="320" as="sourcePoint" />
            <mxPoint x="470" y="320" as="targetPoint" />
          </mxGeometry>
        </mxCell>
        <mxCell id="tEMK68GwZArFFZ3tOXDI-10" value="" style="shape=message;html=1;outlineConnect=0;" parent="tEMK68GwZArFFZ3tOXDI-9" vertex="1">
          <mxGeometry width="20" height="14" relative="1" as="geometry">
            <mxPoint x="-10" y="-7" as="offset" />
          </mxGeometry>
        </mxCell>
        <mxCell id="tEMK68GwZArFFZ3tOXDI-11" value="" style="endArrow=classic;html=1;rounded=0;exitX=1;exitY=0.5;exitDx=0;exitDy=0;entryX=0;entryY=0.5;entryDx=0;entryDy=0;" parent="1" source="kMopjtABeg8flpMHGuyY-2" target="kMopjtABeg8flpMHGuyY-9" edge="1">
          <mxGeometry relative="1" as="geometry">
            <mxPoint x="370" y="320" as="sourcePoint" />
            <mxPoint x="470" y="320" as="targetPoint" />
          </mxGeometry>
        </mxCell>
        <mxCell id="tEMK68GwZArFFZ3tOXDI-12" value="" style="shape=message;html=1;outlineConnect=0;" parent="tEMK68GwZArFFZ3tOXDI-11" vertex="1">
          <mxGeometry width="20" height="14" relative="1" as="geometry">
            <mxPoint x="-10" y="-7" as="offset" />
          </mxGeometry>
        </mxCell>
        <mxCell id="tEMK68GwZArFFZ3tOXDI-13" value="" style="endArrow=classic;html=1;rounded=0;entryX=0.5;entryY=0;entryDx=0;entryDy=0;exitX=1;exitY=0.5;exitDx=0;exitDy=0;" parent="1" source="kMopjtABeg8flpMHGuyY-12" target="kMopjtABeg8flpMHGuyY-4" edge="1">
          <mxGeometry relative="1" as="geometry">
            <mxPoint x="370" y="320" as="sourcePoint" />
            <mxPoint x="470" y="320" as="targetPoint" />
          </mxGeometry>
        </mxCell>
        <mxCell id="tEMK68GwZArFFZ3tOXDI-14" value="" style="shape=message;html=1;outlineConnect=0;" parent="tEMK68GwZArFFZ3tOXDI-13" vertex="1">
          <mxGeometry width="20" height="14" relative="1" as="geometry">
            <mxPoint x="-10" y="-7" as="offset" />
          </mxGeometry>
        </mxCell>
        <mxCell id="tEMK68GwZArFFZ3tOXDI-18" value="" style="group" parent="1" vertex="1" connectable="0">
          <mxGeometry x="556.0769515458674" y="76.07695154586736" width="327.8460969082653" height="327.8460969082653" as="geometry" />
        </mxCell>
        <mxCell id="tEMK68GwZArFFZ3tOXDI-8" value="" style="verticalLabelPosition=bottom;verticalAlign=top;html=1;shape=mxgraph.basic.arc;startAngle=0.540249340538568;endAngle=0.8035834617199686;rotation=-150;perimeterSpacing=0;strokeWidth=2;allowArrows=1;shadow=1;dashed=1;dashPattern=1 1;" parent="tEMK68GwZArFFZ3tOXDI-18" vertex="1">
          <mxGeometry x="43.92304845413264" y="43.92304845413264" width="240" height="240" as="geometry" />
        </mxCell>
        <mxCell id="tEMK68GwZArFFZ3tOXDI-17" value="" style="triangle;whiteSpace=wrap;html=1;rotation=135;" parent="tEMK68GwZArFFZ3tOXDI-18" vertex="1">
          <mxGeometry x="233.92304845413264" y="253.92304845413264" width="10" height="10" as="geometry" />
        </mxCell>
      </root>
    </mxGraphModel>
  </diagram>
  <diagram id="BLfMcc32RlRBh9GqwylI" name="Conduit">
    <mxGraphModel dx="2258" dy="914" grid="1" gridSize="10" guides="1" tooltips="1" connect="1" arrows="1" fold="1" page="1" pageScale="1" pageWidth="850" pageHeight="1100" math="0" shadow="0">
      <root>
        <mxCell id="0" />
        <mxCell id="1" parent="0" />
        <mxCell id="SmKTWikKmV2x1xhcom1Y-24" value="" style="shape=cylinder3;whiteSpace=wrap;html=1;boundedLbl=1;backgroundOutline=1;size=15;rotation=91;sketch=1;curveFitting=1;jiggle=2;fontSize=16;" parent="1" vertex="1">
          <mxGeometry x="549.3" y="40" width="60" height="276.75" as="geometry" />
        </mxCell>
        <mxCell id="SmKTWikKmV2x1xhcom1Y-1" value="Inbound Queue" style="rounded=0;whiteSpace=wrap;html=1;fontFamily=Comic Sans MS;fontSize=16;sketch=1;curveFitting=1;jiggle=2;" parent="1" vertex="1">
          <mxGeometry x="150" y="148.25000000000003" width="120" height="60" as="geometry" />
        </mxCell>
        <mxCell id="SmKTWikKmV2x1xhcom1Y-4" value="Outbound Queue" style="rounded=0;whiteSpace=wrap;html=1;fontFamily=Comic Sans MS;fontSize=16;sketch=1;curveFitting=1;jiggle=2;" parent="1" vertex="1">
          <mxGeometry x="860" y="163.2530484541327" width="130" height="30" as="geometry" />
        </mxCell>
        <mxCell id="SmKTWikKmV2x1xhcom1Y-5" value="" style="ellipse;whiteSpace=wrap;html=1;fontFamily=Comic Sans MS;fontSize=16;sketch=1;curveFitting=1;jiggle=2;" parent="1" vertex="1">
          <mxGeometry x="522" y="158.25304845413268" width="40" height="40" as="geometry" />
        </mxCell>
        <mxCell id="SmKTWikKmV2x1xhcom1Y-6" value="" style="ellipse;whiteSpace=wrap;html=1;fontFamily=Comic Sans MS;fontSize=16;sketch=1;curveFitting=1;jiggle=2;" parent="1" vertex="1">
          <mxGeometry x="462" y="158.25304845413268" width="40" height="40" as="geometry" />
        </mxCell>
        <mxCell id="SmKTWikKmV2x1xhcom1Y-7" value="" style="ellipse;whiteSpace=wrap;html=1;fontFamily=Comic Sans MS;fontSize=16;sketch=1;curveFitting=1;jiggle=2;" parent="1" vertex="1">
          <mxGeometry x="642" y="158.25304845413268" width="40" height="40" as="geometry" />
        </mxCell>
        <mxCell id="SmKTWikKmV2x1xhcom1Y-8" value="" style="ellipse;whiteSpace=wrap;html=1;fontFamily=Comic Sans MS;fontSize=16;sketch=1;curveFitting=1;jiggle=2;" parent="1" vertex="1">
          <mxGeometry x="580" y="158.25" width="42" height="40" as="geometry" />
        </mxCell>
        <mxCell id="SmKTWikKmV2x1xhcom1Y-9" value="Load" style="rounded=0;whiteSpace=wrap;html=1;fontFamily=Comic Sans MS;fontSize=16;sketch=1;curveFitting=1;jiggle=2;" parent="1" vertex="1">
          <mxGeometry x="350" y="162.17000000000002" width="80" height="30" as="geometry" />
        </mxCell>
        <mxCell id="SmKTWikKmV2x1xhcom1Y-10" value="Unload" style="rounded=0;whiteSpace=wrap;html=1;fontFamily=Comic Sans MS;fontSize=16;rotation=0;sketch=1;curveFitting=1;jiggle=2;" parent="1" vertex="1">
          <mxGeometry x="730" y="163.2530484541327" width="70" height="30" as="geometry" />
        </mxCell>
        <mxCell id="SmKTWikKmV2x1xhcom1Y-11" value="Conduit" style="text;html=1;align=center;verticalAlign=middle;whiteSpace=wrap;rounded=0;sketch=1;curveFitting=1;jiggle=2;fontFamily=Comic Sans MS;fontSize=16;" parent="1" vertex="1">
          <mxGeometry x="462" y="259.3330484541327" width="60" height="30" as="geometry" />
        </mxCell>
        <mxCell id="SmKTWikKmV2x1xhcom1Y-12" value="Pod" style="text;html=1;align=center;verticalAlign=middle;whiteSpace=wrap;rounded=0;sketch=1;curveFitting=1;jiggle=2;fontFamily=Comic Sans MS;fontSize=16;" parent="1" vertex="1">
          <mxGeometry x="562" y="53.25304845413268" width="60" height="30" as="geometry" />
        </mxCell>
        <mxCell id="SmKTWikKmV2x1xhcom1Y-13" value="" style="endArrow=classic;html=1;rounded=0;exitX=0.5;exitY=1;exitDx=0;exitDy=0;sketch=1;curveFitting=1;jiggle=2;fontFamily=Comic Sans MS;fontSize=16;" parent="1" source="SmKTWikKmV2x1xhcom1Y-12" target="SmKTWikKmV2x1xhcom1Y-5" edge="1">
          <mxGeometry width="50" height="50" relative="1" as="geometry">
            <mxPoint x="402" y="313.2530484541327" as="sourcePoint" />
            <mxPoint x="452" y="263.2530484541327" as="targetPoint" />
          </mxGeometry>
        </mxCell>
        <mxCell id="SmKTWikKmV2x1xhcom1Y-17" value="" style="endArrow=classic;html=1;rounded=0;entryX=0;entryY=0.5;entryDx=0;entryDy=0;sketch=1;curveFitting=1;jiggle=2;fontFamily=Comic Sans MS;fontSize=16;exitX=1;exitY=0.5;exitDx=0;exitDy=0;" parent="1" source="SmKTWikKmV2x1xhcom1Y-1" target="SmKTWikKmV2x1xhcom1Y-9" edge="1">
          <mxGeometry relative="1" as="geometry">
            <mxPoint x="430" y="177.92" as="sourcePoint" />
            <mxPoint x="460" y="272.1730484541327" as="targetPoint" />
          </mxGeometry>
        </mxCell>
        <mxCell id="SmKTWikKmV2x1xhcom1Y-18" value="" style="shape=message;html=1;outlineConnect=0;sketch=1;curveFitting=1;jiggle=2;fontFamily=Comic Sans MS;fontSize=16;" parent="SmKTWikKmV2x1xhcom1Y-17" vertex="1">
          <mxGeometry width="20" height="14" relative="1" as="geometry">
            <mxPoint x="-10" y="-7" as="offset" />
          </mxGeometry>
        </mxCell>
        <mxCell id="SmKTWikKmV2x1xhcom1Y-19" value="" style="endArrow=classic;html=1;rounded=0;entryX=0;entryY=0.5;entryDx=0;entryDy=0;exitX=1;exitY=0.5;exitDx=0;exitDy=0;sketch=1;curveFitting=1;jiggle=2;fontFamily=Comic Sans MS;fontSize=16;" parent="1" source="SmKTWikKmV2x1xhcom1Y-10" target="SmKTWikKmV2x1xhcom1Y-4" edge="1">
          <mxGeometry relative="1" as="geometry">
            <mxPoint x="620" y="162.17304845413267" as="sourcePoint" />
            <mxPoint x="720" y="162.17304845413267" as="targetPoint" />
          </mxGeometry>
        </mxCell>
        <mxCell id="SmKTWikKmV2x1xhcom1Y-20" value="" style="shape=message;html=1;outlineConnect=0;sketch=1;curveFitting=1;jiggle=2;fontFamily=Comic Sans MS;fontSize=16;" parent="SmKTWikKmV2x1xhcom1Y-19" vertex="1">
          <mxGeometry width="20" height="14" relative="1" as="geometry">
            <mxPoint x="-10" y="-7" as="offset" />
          </mxGeometry>
        </mxCell>
        <mxCell id="SmKTWikKmV2x1xhcom1Y-26" value="" style="endArrow=classic;html=1;rounded=0;exitX=0.5;exitY=0;exitDx=0;exitDy=0;entryX=1;entryY=0;entryDx=0;entryDy=200.0625;entryPerimeter=0;sketch=1;curveFitting=1;jiggle=2;" parent="1" source="SmKTWikKmV2x1xhcom1Y-11" target="SmKTWikKmV2x1xhcom1Y-24" edge="1">
          <mxGeometry width="50" height="50" relative="1" as="geometry">
            <mxPoint x="900" y="189.33000000000004" as="sourcePoint" />
            <mxPoint x="950" y="139.33000000000004" as="targetPoint" />
          </mxGeometry>
        </mxCell>
      </root>
    </mxGraphModel>
  </diagram>
</mxfile>
